<?xml version="1.0" encoding="utf-8"?>
<svg xmlns="http://www.w3.org/2000/svg" version="1.1" width="570" height="600.0">
<rect width="570" height="600.0" x="0" y="0" fill="grey"/>
<line x1="10" y1="410" x2="472" y2="410" stroke="black" stroke-width="4"/>
<line x1="8" y1="412" x2="8" y2="5" stroke="black" stroke-width="4"/>
<line x1="10" y1="310" x2="482" y2="310" stroke="darkgrey" stroke-width="1"/>
<text x="471" y="322" font-size="10" style="text-anchor:middle;" fill="darkgrey">100</text>
<line x1="10" y1="210" x2="482" y2="210" stroke="darkgrey" stroke-width="1"/>
<text x="471" y="222" font-size="10" style="text-anchor:middle;" fill="darkgrey">200</text>
<line x1="10" y1="110" x2="482" y2="110" stroke="darkgrey" stroke-width="1"/>
<text x="471" y="122" font-size="10" style="text-anchor:middle;" fill="darkgrey">300</text>
<line x1="10" y1="10" x2="482" y2="10" stroke="darkgrey" stroke-width="1"/>
<text x="471" y="22" font-size="10" style="text-anchor:middle;" fill="darkgrey">400</text>null
<rect width="20" height="200" x="20" y="200" fill="blue"/>
<rect width="20" height="27" x="50" y="373" fill="yellow"/>
<rect width="20" height="19" x="80" y="381" fill="violet"/>
<rect width="20" height="120" x="110" y="280" fill="blue"/>
<rect width="20" height="239" x="140" y="161" fill="yellow"/>
<rect width="20" height="117" x="170" y="283" fill="violet"/>
<rect width="20" height="11" x="200" y="389" fill="blue"/>
<rect width="20" height="267" x="230" y="133" fill="yellow"/>
<rect width="20" height="111" x="260" y="289" fill="violet"/>
<rect width="20" height="19" x="290" y="381" fill="blue"/>
<rect width="20" height="239" x="320" y="161" fill="yellow"/>
<rect width="20" height="345" x="350" y="55" fill="violet"/>
<rect width="20" height="23" x="380" y="377" fill="blue"/>
<rect width="20" height="199" x="410" y="201" fill="yellow"/>
<rect width="20" height="387" x="440" y="13" fill="violet"/>null
<rect width="10" height="10" x="500" y="34" fill="blue"/>
<text x="530" y="42.5" font-size="10" style="text-anchor:middle;">orange</text>
<rect width="10" height="10" x="500" y="54" fill="yellow"/>
<text x="530" y="62.5" font-size="10" style="text-anchor:middle;"> bananes</text>
<rect width="10" height="10" x="500" y="74" fill="violet"/>
<text x="530" y="82.5" font-size="10" style="text-anchor:middle;"> kiwi</text>null
<text x="60" y="430" font-size="10" style="text-anchor:middle;">1990</text>
<text x="150" y="430" font-size="10" style="text-anchor:middle;">2001</text>
<text x="240" y="430" font-size="10" style="text-anchor:middle;">2009</text>
<text x="330" y="430" font-size="10" style="text-anchor:middle;">2017</text>
<text x="420" y="430" font-size="10" style="text-anchor:middle;">2019</text>
</svg>
