<?xml version="1.0" encoding="utf-8"?>
<svg xmlns="http://www.w3.org/2000/svg" version="1.1" width="270" height="600.0">
<rect width="270" height="600.0" x="0" y="0" fill="grey"/>
<line x1="10" y1="410" x2="172" y2="410" stroke="black" stroke-width="4"/>
<line x1="8" y1="412" x2="8" y2="5" stroke="black" stroke-width="4"/>
<line x1="10" y1="310" x2="182" y2="310" stroke="darkgrey" stroke-width="1"/>
<text x="171" y="322" font-size="10" style="text-anchor:middle;" fill="darkgrey">100</text>
<line x1="10" y1="210" x2="182" y2="210" stroke="darkgrey" stroke-width="1"/>
<text x="171" y="222" font-size="10" style="text-anchor:middle;" fill="darkgrey">200</text>
<line x1="10" y1="110" x2="182" y2="110" stroke="darkgrey" stroke-width="1"/>
<text x="171" y="122" font-size="10" style="text-anchor:middle;" fill="darkgrey">300</text>
<line x1="10" y1="10" x2="182" y2="10" stroke="darkgrey" stroke-width="1"/>
<text x="171" y="22" font-size="10" style="text-anchor:middle;" fill="darkgrey">400</text>null
<rect width="20" height="200" x="20" y="200" fill="blue"/>
<rect width="20" height="120" x="50" y="280" fill="blue"/>
<rect width="20" height="11" x="80" y="389" fill="blue"/>
<rect width="20" height="19" x="110" y="381" fill="blue"/>
<rect width="20" height="23" x="140" y="377" fill="blue"/>null
<rect width="10" height="10" x="200" y="34" fill="blue"/>
<text x="230" y="42.5" font-size="10" style="text-anchor:middle;">chaussure</text>null
<text x="40" y="430" font-size="10" style="text-anchor:middle;">1990</text>
<text x="70" y="430" font-size="10" style="text-anchor:middle;">2001</text>
<text x="100" y="430" font-size="10" style="text-anchor:middle;">2009</text>
<text x="130" y="430" font-size="10" style="text-anchor:middle;">2017</text>
<text x="160" y="430" font-size="10" style="text-anchor:middle;">2019</text>
</svg>
